<svg xmlns="http://www.w3.org/2000/svg" viewBox="0 0 105.44 105.44"><defs><style>.cls-1{fill:#b3ba5a;}.cls-2{fill:#a6dbd7;}.cls-3{fill:#ee2b4f;}.cls-4{fill:#edad1f;}</style></defs><title>daxkoAsset 1</title><g id="Layer_2" data-name="Layer 2"><g id="Layer_1-2" data-name="Layer 1"><path class="cls-1" d="M12.33,17.52C5.55,10.74,0,13,0,22.62V82.81c0,9.59,5.55,11.89,12.33,5.1L35.2,65.05a17.49,17.49,0,0,0,0-24.66Z"/><path class="cls-2" d="M93.1,87.91c6.79,6.79,12.34,4.49,12.34-5.1V22.63c0-9.6-5.55-11.89-12.34-5.11L70.24,40.38a17.5,17.5,0,0,0,0,24.67Z"/><path class="cls-3" d="M17.52,93.1c-6.78,6.78-4.48,12.34,5.1,12.34H82.81c9.59,0,11.89-5.56,5.1-12.34L65.05,70.24a17.49,17.49,0,0,0-24.66,0Z"/><path class="cls-4" d="M87.91,12.33C94.7,5.55,92.4,0,82.81,0H22.63C13,0,10.74,5.55,17.52,12.33L40.38,35.2a17.5,17.5,0,0,0,24.67,0Z"/></g></g></svg>