<svg xmlns="http://www.w3.org/2000/svg" viewBox="0 0 1538.75 432"><defs><style>.cls-1{fill:#696b73;}</style></defs><title>Asset 32</title><g id="Layer_2" data-name="Layer 2"><g id="Layer_1-2" data-name="Layer 1"><polygon class="cls-1" points="1228.14 135.36 1168.41 135.36 1046.06 307.54 1046.06 0 999.65 0 999.65 428.43 1046.06 428.43 1046.06 388.51 1094.26 321.5 1170.95 428.12 1228.14 428.12 1123.49 280.86 1228.14 135.36"/><path class="cls-1" d="M260.62,180.88a150,150,0,1,0,0,202.33v44.91H307V0H260.62ZM150,389.16a107.11,107.11,0,1,1,107.1-107.11A107.11,107.11,0,0,1,150,389.16Z"/><polygon class="cls-1" points="900.64 135.36 826.5 239.71 752.35 135.36 692.61 135.36 797.26 280.86 692.61 428.12 749.81 428.12 826.5 321.5 903.18 428.12 960.38 428.12 855.73 280.86 960.38 135.36 900.64 135.36"/><path class="cls-1" d="M606.93,180.88a150,150,0,1,0,0,202.33v45.22h46.41V135.67H606.93ZM496.25,389.16A107.11,107.11,0,1,1,603.36,282.05,107.11,107.11,0,0,1,496.25,389.16Z"/><path class="cls-1" d="M1388.8,132.1a149.95,149.95,0,1,0,150,150A149.94,149.94,0,0,0,1388.8,132.1Zm0,257.06a107.11,107.11,0,1,1,107.1-107.11A107.12,107.12,0,0,1,1388.8,389.16Z"/><path class="cls-1" d="M1538.75,34.75c0,19.49-15.69,35-35.6,35s-35.81-15.47-35.81-35S1483.23,0,1503.36,0C1523.06,0,1538.75,15.25,1538.75,34.75Zm-62.51,0c0,15.46,11.66,27.76,27.12,27.76,15,.2,26.48-12.3,26.48-27.54,0-15.47-11.45-28-26.91-28C1487.9,7,1476.24,19.5,1476.24,34.75Zm21.38,18h-8V18A94.26,94.26,0,0,1,1502.93,17c6.57,0,9.54,1.07,11.86,2.76a8.68,8.68,0,0,1,3.6,7.42c0,4.23-3.18,7-7.2,8.27v.42c3.39,1,5.09,3.81,6.15,8.46,1.05,5.3,1.9,7.21,2.54,8.48h-8.48c-1.06-1.27-1.69-4.23-2.74-8.48-.65-3.6-2.75-5.3-7.21-5.3h-3.83Zm.23-19.5h3.81c4.45,0,8-1.47,8-5.08,0-3.19-2.34-5.28-7.41-5.28a20.23,20.23,0,0,0-4.45.41Z"/></g></g></svg>